# xmcd CD database file
#
# Track frame offsets:
#	150
#	27799
#	45378
#	72283
#	88183
#	106072
#	120963
#	134172
#	148088
#	163521
#	177492
#
# Disc length: 2591 seconds
#
# Revision: 0
# Processed by: cddbd v1.5.1PL2 Copyright (c) Steve Scherf et al.
# Submitted via: CDex 1.51
#
DISCID=940a1d0b
DTITLE=Charlie Parker - Bird Up Remixed
DYEAR=2006
DGENRE=Jazz
TTITLE0=Charlie Parker - Koko (Ali Shaheed Muhammed Remix)
TTITLE1=Charlie Parker - Bird Of Paradise (Gone by Serj Tankian)
TTITLE2=Charlie Parker - Relaxin' At Camarillo (Aug 29th by Me'shell NdegeOcello)
TTITLE3=Charlie Parker - Cheers (X-ecutioners style by Rob Swift)
TTITLE4=Charlie Parker - Bebop (Live at the Rooftop by Choco and the RZA)
TTITLE5=Charlie Parker feat. Miles Davis - Moose the Mooche (Quantic Remix)
TTITLE6=Charlie Parker - KoKo
TTITLE7=Charlie Parker - A Night In Tunisia
TTITLE8=Charlie Parker - Parker's Mood
TTITLE9=Charlie Parker - Steeplechase
TTITLE10=Charlie Parker - Salt Peanuts
EXTD=YEAR: 2006
EXTT0=
EXTT1=
EXTT2=
EXTT3=
EXTT4=
EXTT5=
EXTT6=
EXTT7=
EXTT8=
EXTT9=
EXTT10=
PLAYORDER=
